{"title":"Real Genius(1985)MPEG-4[DaScubaDude]","uid":15321676,"size":1059626025,"categoryP":"video","categoryS":"movies","magnet":"?xt=urn:btih:b5ea5a4cc0a0474b2a15dcb6046986f5866f4ae2&amp;dn=Real+Genius%281985%29MPEG-4%5BDaScubaDude%5D&amp;tr=udp%3A%2F%2Ftracker.leechers-paradise.org%3A6969&amp;tr=udp%3A%2F%2Fzer0day.ch%3A1337&amp;tr=udp%3A%2F%2Fopen.demonii.com%3A1337&amp;tr=udp%3A%2F%2Ftracker.coppersurfer.tk%3A6969&amp;tr=udp%3A%2F%2Fexodus.desync.com%3A6969","seeders":0,"leechers":1,"uploader":"dascuba","files":1,"time":1468652114,"description":"Real Genius (1985)\r\nPG | 1h 48min | Comedy, Romance, Sci-Fi | 7 August 1985 (USA)\r\nTeenage geniuses deal with their abilities while developing a laser.\r\nDirector: Martha Coolidge\r\nWriters: Neal Israel (screenplay), Neal Israel (story) |\r\nStars: Val Kilmer, Gabriel Jarret, Michelle Meyrink |\r\n\r\nGeneral\r\nComplete name                            : Real GeniusDVD_VIDEO_Title1.mp4\r\nFormat                                   : MPEG-4\r\nFormat profile                           : Base Media\r\nCodec ID                                 : isom (isom/iso2/avc1/mp41)\r\nFile size                                : 1 011 MiB\r\nDuration                                 : 1h 45mn\r\nOverall bit rate                         : 1 335 Kbps\r\nMovie name                               : DVD_VIDEO\r\nGenre                                    : Comedy\r\nWriting application                      : Lavf54.6.100\r\n\r\nVideo\r\nID                                       : 1\r\nFormat                                   : AVC\r\nFormat/Info                              : Advanced Video Codec\r\nFormat profile                           :   \r\nFormat settings, CABAC                   : No\r\nFormat settings, ReFrames                : 6 frames\r\nCodec ID                                 : avc1\r\nCodec ID/Info                            : Advanced Video Coding\r\nDuration                                 : 1h 45mn\r\nBit rate                                 : 1 200 Kbps\r\nWidth                                    : 720 pixels\r\nHeight                                   : 404 pixels\r\nDisplay aspect ratio                     : 16:9\r\nFrame rate mode                          : Constant\r\nFrame rate                               : 29.970 (30000/1001) fps\r\nColor space                              : YUV\r\nChroma subsampling                       : 4:2:0\r\nBit depth                                : 8 bits\r\nScan type                                : Progressive\r\nBits/(Pixel*Frame)                       : 0.138\r\nStream size                              : 909 MiB (90%)\r\n\r\nAudio\r\nID                                       : 2\r\nFormat                                   : AAC\r\nFormat/Info                              : Advanced Audio Codec\r\nFormat profile                           : LC\r\nCodec ID                                 : 40\r\nDuration                                 : 1h 45mn\r\nBit rate mode                            : Constant\r\nBit rate                                 : 128 Kbps\r\nChannel(s)                               : 2 channels\r\nChannel positions                        : Front: L R\r\nSampling rate                            : 44.1 KHz\r\nFrame rate                               : 43.066 fps (1024 spf)\r\nCompression mode                         : Lossy\r\nStream size                              : 96.9 MiB (10%)\r\nDefault                                  : Yes\r\nAlternate group                          : 1","torrent":{"xt":"urn:btih:b5ea5a4cc0a0474b2a15dcb6046986f5866f4ae2","amp;dn":"Real+Genius%281985%29MPEG-4%5BDaScubaDude%5D","amp;tr":["udp%3A%2F%2Ftracker.leechers-paradise.org%3A6969","udp%3A%2F%2Fzer0day.ch%3A1337","udp%3A%2F%2Fopen.demonii.com%3A1337","udp%3A%2F%2Ftracker.coppersurfer.tk%3A6969","udp%3A%2F%2Fexodus.desync.com%3A6969"],"infoHash":"b5ea5a4cc0a0474b2a15dcb6046986f5866f4ae2","infoHashBuffer":{"type":"Buffer","data":[181,234,90,76,192,160,71,75,42,21,220,182,4,105,134,245,134,111,74,226]},"announce":[],"urlList":[]}}